<svg xmlns="http://www.w3.org/2000/svg" width="720" height="112" viewBox="0 0 720 112" fill="none" role="img" aria-label="Ligate Labs">
  <title>Ligate Labs</title>
  <g transform="translate(16 0)">
    <path d="M123.03 55.9332L115.623 68.7795L108.216 81.6154L100.819 94.4513L93.4121 107.277H34.2075L26.8004 94.4513L19.4037 81.6154H78.6187L86.0154 68.7795L93.4121 55.9332H123.03Z" stroke="#F4F2EC" stroke-width="9.2" stroke-linejoin="round"/>
    <path d="M49.0113 30.2718L41.6042 43.0973L34.2075 55.9332L26.8004 68.7795L19.4037 81.6154L11.9967 68.7795L4.59998 55.9332L11.9967 43.0973L19.4037 30.2718H49.0113Z" stroke="#F4F2EC" stroke-width="9.2" stroke-linejoin="round"/>
    <path d="M108.216 30.2718L100.819 43.0973L93.4121 55.9332H63.8046L71.2221 43.0973L78.6188 30.2718H49.0112L56.4079 17.4359L63.8046 4.60001H93.4121L100.819 17.4359L108.216 30.2718Z" stroke="#F4F2EC" stroke-width="9.2" stroke-linejoin="round"/>
  </g>
  <g transform="translate(164 81)" fill="#F4F2EC">
    <path d="M7.3 0V-70H18.1V-9.8H51.8V0Z M60 0V-49.3H70.3V0ZM65.2 -56Q62.2 -56 60.2 -58Q58.1 -59.9 58.1 -63Q58.1 -66.1 60.2 -68.1Q62.2 -70 65.2 -70Q68.3 -70 70.3 -68.1Q72.3 -66.1 72.3 -63Q72.3 -59.9 70.3 -58Q68.3 -56 65.2 -56Z M81.2 -24.4V-25.9Q81.2 -33.7 84.3 -39.2Q87.5 -44.7 92.7 -47.7Q97.9 -50.7 104.1 -50.7Q111.3 -50.7 115.2 -48Q119 -45.3 120.8 -42.2H122.4V-49.3H132.4V10.1Q132.4 14.6 129.8 17.3Q127.1 20 122.5 20H89.3V11H119.3Q122.2 11 122.2 8V-7.7H120.6Q119.5 -5.9 117.5 -4Q115.5 -2.1 112.2 -0.9Q109 0.3 104.1 0.3Q97.9 0.3 92.7 -2.7Q87.4 -5.6 84.3 -11.2Q81.2 -16.7 81.2 -24.4ZM106.9 -8.7Q113.6 -8.7 118 -12.9Q122.3 -17.2 122.3 -24.7V-25.6Q122.3 -33.3 118 -37.5Q113.7 -41.6 106.9 -41.6Q100.3 -41.6 95.9 -37.5Q91.6 -33.3 91.6 -25.6V-24.7Q91.6 -17.2 95.9 -12.9Q100.3 -8.7 106.9 -8.7Z M160.9 1.4Q155.6 1.4 151.4 -0.4Q147.3 -2.2 144.9 -5.7Q142.4 -9.2 142.4 -14.2Q142.4 -19.3 144.9 -22.6Q147.3 -26 151.6 -27.7Q155.8 -29.4 161.2 -29.4H176.2V-32.6Q176.2 -36.9 173.6 -39.5Q171 -42.1 165.6 -42.1Q160.3 -42.1 157.5 -39.6Q154.7 -37.1 153.8 -33.1L144.2 -36.2Q145.4 -40.2 148.1 -43.5Q150.7 -46.7 155.1 -48.7Q159.5 -50.7 165.7 -50.7Q175.3 -50.7 180.8 -45.8Q186.3 -40.9 186.3 -31.9V-11.6Q186.3 -8.6 189.1 -8.6H193.3V0H185.6Q182.1 0 179.9 -1.8Q177.7 -3.6 177.7 -6.7V-7H176.2Q175.4 -5.5 173.8 -3.5Q172.2 -1.5 169.1 0Q166 1.4 160.9 1.4ZM162.4 -7.1Q168.6 -7.1 172.4 -10.7Q176.2 -14.2 176.2 -20.4V-21.4H161.8Q157.7 -21.4 155.2 -19.7Q152.7 -17.9 152.7 -14.5Q152.7 -11.1 155.3 -9.1Q157.9 -7.1 162.4 -7.1Z M219.8 0Q215.3 0 212.6 -2.7Q210 -5.4 210 -9.9V-40.6H196.4V-49.3H210V-65.6H220.3V-49.3H235V-40.6H220.3V-11.7Q220.3 -8.7 223.1 -8.7H233.4V0Z M267.7 1.4Q260.2 1.4 254.6 -1.8Q249 -4.9 245.8 -10.7Q242.7 -16.4 242.7 -24V-25.2Q242.7 -32.9 245.8 -38.7Q248.9 -44.4 254.4 -47.6Q260 -50.7 267.3 -50.7Q274.4 -50.7 279.8 -47.6Q285.1 -44.4 288.1 -38.8Q291.1 -33.2 291.1 -25.7V-21.8H253.2Q253.4 -15.3 257.6 -11.5Q261.7 -7.6 267.9 -7.6Q273.7 -7.6 276.6 -10.2Q279.6 -12.8 281.2 -16.2L289.7 -11.8Q288.3 -9 285.6 -5.9Q283 -2.8 278.7 -0.7Q274.4 1.4 267.7 1.4ZM253.3 -29.7H280.6Q280.2 -35.3 276.6 -38.5Q273 -41.6 267.2 -41.6Q261.4 -41.6 257.8 -38.5Q254.1 -35.3 253.3 -29.7Z M324.7 0V-70H335.5V-9.8H369.2V0Z M392.7 1.4Q387.4 1.4 383.2 -0.4Q379.1 -2.2 376.6 -5.7Q374.2 -9.2 374.2 -14.2Q374.2 -19.3 376.6 -22.6Q379.1 -26 383.3 -27.7Q387.6 -29.4 393 -29.4H408V-32.6Q408 -36.9 405.4 -39.5Q402.8 -42.1 397.4 -42.1Q392.1 -42.1 389.3 -39.6Q386.5 -37.1 385.6 -33.1L376 -36.2Q377.2 -40.2 379.8 -43.5Q382.5 -46.7 386.9 -48.7Q391.3 -50.7 397.5 -50.7Q407.1 -50.7 412.6 -45.8Q418.1 -40.9 418.1 -31.9V-11.6Q418.1 -8.6 420.9 -8.6H425.1V0H417.4Q413.9 0 411.7 -1.8Q409.5 -3.6 409.5 -6.7V-7H408Q407.2 -5.5 405.6 -3.5Q404 -1.5 400.9 0Q397.8 1.4 392.7 1.4ZM394.2 -7.1Q400.4 -7.1 404.2 -10.7Q408 -14.2 408 -20.4V-21.4H393.6Q389.5 -21.4 387 -19.7Q384.5 -17.9 384.5 -14.5Q384.5 -11.1 387.1 -9.1Q389.7 -7.1 394.2 -7.1Z M461.6 1.4Q454.4 1.4 450.5 -1.2Q446.7 -3.8 444.8 -7H443.2V0H433.1V-70H443.4V-42.6H445Q446.2 -44.6 448.2 -46.5Q450.2 -48.3 453.5 -49.5Q456.8 -50.7 461.6 -50.7Q467.8 -50.7 473 -47.7Q478.2 -44.7 481.3 -39Q484.4 -33.3 484.4 -25.4V-23.9Q484.4 -15.9 481.2 -10.2Q478.1 -4.6 472.9 -1.6Q467.8 1.4 461.6 1.4ZM458.6 -7.6Q465.3 -7.6 469.6 -11.9Q474 -16.2 474 -24.2V-25.1Q474 -33 469.7 -37.3Q465.4 -41.6 458.6 -41.6Q452 -41.6 447.6 -37.3Q443.3 -33 443.3 -25.1V-24.2Q443.3 -16.2 447.6 -11.9Q452 -7.6 458.6 -7.6Z M515.4 1.4Q506 1.4 499.8 -2.8Q493.6 -7 492.2 -15.5L501.8 -17.8Q502.6 -13.7 504.5 -11.3Q506.4 -8.9 509.2 -7.9Q512.1 -6.9 515.4 -6.9Q520.3 -6.9 522.9 -8.8Q525.6 -10.7 525.6 -13.7Q525.6 -16.7 523.1 -18.1Q520.6 -19.5 515.7 -20.4L512.3 -21Q507.3 -21.9 503.2 -23.6Q499.1 -25.3 496.7 -28.3Q494.3 -31.3 494.3 -36Q494.3 -43 499.5 -46.9Q504.7 -50.7 513.3 -50.7Q521.6 -50.7 526.9 -47Q532.3 -43.2 533.9 -36.8L524.3 -34.1Q523.4 -38.6 520.5 -40.5Q517.6 -42.3 513.3 -42.3Q509.1 -42.3 506.7 -40.8Q504.3 -39.2 504.3 -36.4Q504.3 -33.4 506.6 -32Q509 -30.6 513 -29.9L516.5 -29.3Q521.8 -28.4 526.2 -26.8Q530.6 -25.2 533.1 -22.2Q535.7 -19.2 535.7 -14.2Q535.7 -6.8 530.2 -2.7Q524.7 1.4 515.4 1.4Z"/>
  </g>
</svg>
